<?xml version="1.0" encoding="UTF-8" standalone="no"?>
<!-- Created with Inkscape (http://www.inkscape.org/) -->

<svg
   xmlns:dc="http://purl.org/dc/elements/1.1/"
   xmlns:cc="http://creativecommons.org/ns#"
   xmlns:rdf="http://www.w3.org/1999/02/22-rdf-syntax-ns#"
   xmlns:svg="http://www.w3.org/2000/svg"
   xmlns="http://www.w3.org/2000/svg"
   xmlns:sodipodi="http://sodipodi.sourceforge.net/DTD/sodipodi-0.dtd"
   xmlns:inkscape="http://www.inkscape.org/namespaces/inkscape"
   version="1.0"
   width="296.82385"
   height="845.33588"
   viewBox="0 0 890.47156 1127.1145"
   id="clef_1_"
   xml:space="preserve"
   inkscape:version="0.47 r22583"
   sodipodi:docname="treble.svg"><metadata
   id="metadata2894"><rdf:RDF><cc:Work
       rdf:about=""><dc:format>image/svg+xml</dc:format><dc:type
         rdf:resource="http://purl.org/dc/dcmitype/StillImage" /></cc:Work></rdf:RDF></metadata><sodipodi:namedview
   pagecolor="#ffffff"
   bordercolor="#666666"
   borderopacity="1"
   objecttolerance="10"
   gridtolerance="10"
   guidetolerance="10"
   inkscape:pageopacity="0"
   inkscape:pageshadow="2"
   inkscape:window-width="946"
   inkscape:window-height="712"
   id="namedview2892"
   showgrid="false"
   inkscape:zoom="0.52444444"
   inkscape:cx="371.53994"
   inkscape:cy="423.65358"
   inkscape:window-x="1741"
   inkscape:window-y="129"
   inkscape:window-maximized="0"
   inkscape:current-layer="clef_1_" /><defs
   id="defs5"><inkscape:perspective
     sodipodi:type="inkscape:persp3d"
     inkscape:vp_x="0 : 450 : 1"
     inkscape:vp_y="0 : 1000 : 0"
     inkscape:vp_z="400 : 450 : 1"
     inkscape:persp3d-origin="200 : 300 : 1"
     id="perspective2896" /></defs>
<path
   d="M 465.12053,1246.882 C 334.76352,1239.3053 201.67084,1157.5416 122.0719,1063.6981 29.785738,954.89294 -8.2622822,806.96195 1.4837878,685.47869 30.114568,328.528 418.29011,117.55361 561.98288,-38.365136 658.16474,-142.73113 678.32823,-193.60796 699.81157,-247.28437 c 41.59204,-103.90016 48.29189,-225.63461 -34.16602,-234.72302 -78.72663,-8.67737 -143.49638,115.1305 -172.42402,199.74406 -26.01386,76.10514 -43.30466,152.46149 -27.65343,267.158129 C 472.60134,36.424706 666.19816,1474.8276 669.46359,1497.1239 702.06769,1719.9406 574.64272,1812.14 444.56428,1828.5402 163.66851,1863.9531 73.537968,1578.4994 199.433,1470.087 c 96.92171,-83.4718 237.92906,-11.8104 230.31125,125.42 -6.74552,121.5472 -125.92699,125.1278 -156.38001,122.351 46.74821,83.8417 399.17754,127.6442 345.06269,-251.1506 C 610.8228,1413.4785 431.92729,61.758079 427.54292,31.51058 c -32.81874,-226.44299 -37.81965,-405.68103 80.1607,-614.84687 43.55585,-77.21496 112.39028,-127.06419 146.1818,-120.53789 7.426,1.43404 14.82462,4.16058 20.69782,10.22103 90.50047,93.24982 118.2635,300.03625 108.34846,418.82495 C 772.77916,-153.19879 767.1206,-27.2855 646.18082,119.54941 599.37781,176.3725 456.55733,301.5505 374.67031,373.46767 259.61287,474.51343 176.15936,562.76691 131.00503,669.23374 80.260658,788.89018 71.670058,939.51572 186.28448,1073.1656 c 65.92979,75.5114 175.31954,129.0919 267.38191,130.2337 255.9826,3.1786 330.73589,-123.0041 333.12445,-265.90221 3.93222,-235.29846 -280.13308,-324.25983 -396.92142,-162.47244 -67.7155,93.81156 -37.9521,192.55096 7.52649,239.52755 15.61013,16.1216 33.0471,28.4024 49.54323,35.2484 5.97826,2.4799 20.04017,9.0199 16.04859,18.5924 -3.32023,7.9649 -9.76891,8.4125 -15.64212,7.7092 C 373.69753,1067.2695 292.14847,996.87312 272.0946,875.78724 242.87468,699.30313 398.6153,489.95002 620.9251,524.18912 766.46752,546.60415 901.5971,671.83694 889.7456,905.03458 879.584,1104.8973 713.89176,1261.3413 465.12053,1246.882 z"
   id="clef" />
</svg>